<svg xmlns="http://www.w3.org/2000/svg" version="1.1" xmlns:xlink="http://www.w3.org/1999/xlink" xmlns:svgjs="http://svgjs.com/svgjs" width="1440" height="560" preserveAspectRatio="none" viewBox="0 0 1440 560"><g mask="url(&quot;#SvgjsMask1044&quot;)" fill="none"><rect width="1440" height="560" x="0" y="0" fill="rgba(86, 25, 189, 1)"></rect><path d="M0,403.505C84.688,398.929,173.024,425.258,248.738,387.043C327.589,347.244,374.924,267.806,419.699,191.67C468.829,108.129,541.047,19.866,520.355,-74.816C499.648,-169.565,392.268,-213.29,317.656,-275.251C255.329,-327.01,196.228,-381.055,119.671,-407.561C40.42,-435,-46.926,-457.015,-125.915,-428.829C-203.572,-401.118,-236.047,-312.559,-298.247,-258.432C-374.088,-192.435,-506.613,-173.883,-530.975,-76.343C-554.885,19.388,-456.259,100.124,-409.502,187.014C-366.14,267.595,-347.532,372.123,-266.634,414.891C-186.363,457.328,-90.666,408.404,0,403.505" fill="#431493"></path><path d="M1440 995.9110000000001C1523.374 997.7149999999999 1599.472 961.196 1674.69 925.185 1759.687 884.492 1851.051 849.373 1905.996 772.813 1966.576 688.4010000000001 2024.183 579.757 1993.932 480.35699999999997 1963.5439999999999 380.50800000000004 1826.4560000000001 363.23199999999997 1757.5 284.884 1689.373 207.478 1687.691 75.733 1596.108 28.346000000000004 1502.877-19.894000000000005 1386.093 4.860000000000014 1287.867 41.884000000000015 1193.632 77.404 1122.762 151.95299999999997 1059.752 230.51299999999998 998.6949999999999 306.637 939.049 389.56399999999996 931.002 486.817 923.147 581.744 964.27 673.749 1016.483 753.414 1063.772 825.565 1136.883 872.303 1211.747 915.168 1283.231 956.098 1357.646 994.129 1440 995.9110000000001" fill="#6a23e2"></path></g><defs><mask id="SvgjsMask1044"><rect width="1440" height="560" fill="#ffffff"></rect></mask></defs></svg>