<svg id="visual" viewBox="0 0 900 600" width="900" height="600" xmlns="http://www.w3.org/2000/svg" xmlns:xlink="http://www.w3.org/1999/xlink" version="1.1"><rect x="0" y="0" width="900" height="600" fill="#4d00b0"></rect><path d="M546 600L512 575C478 550 410 500 379 450C348 400 354 350 390.5 300C427 250 494 200 498.3 150C502.7 100 444.3 50 415.2 25L386 0L900 0L900 25C900 50 900 100 900 150C900 200 900 250 900 300C900 350 900 400 900 450C900 500 900 550 900 575L900 600Z" fill="#0e0031" stroke-linecap="round" stroke-linejoin="miter"></path></svg>