<svg id="visual" viewBox="0 0 900 600" width="900" height="600" xmlns="http://www.w3.org/2000/svg" xmlns:xlink="http://www.w3.org/1999/xlink" version="1.1"><rect x="0" y="0" width="900" height="600" fill="#4d00b0"></rect><path d="M0 297L7.5 301.8C15 306.7 30 316.3 45 316.5C60 316.7 75 307.3 90 306.2C105 305 120 312 135 312.2C150 312.3 165 305.7 180 305C195 304.3 210 309.7 225 308.2C240 306.7 255 298.3 270 300C285 301.7 300 313.3 315 314.2C330 315 345 305 360 302.5C375 300 390 305 405 303.5C420 302 435 294 450 288.2C465 282.3 480 278.7 495 279C510 279.3 525 283.7 540 287C555 290.3 570 292.7 585 294.7C600 296.7 615 298.3 630 298C645 297.7 660 295.3 675 296.5C690 297.7 705 302.3 720 300.8C735 299.3 750 291.7 765 293C780 294.3 795 304.7 810 310.7C825 316.7 840 318.3 855 315.2C870 312 885 304 892.5 300L900 296L900 0L892.5 0C885 0 870 0 855 0C840 0 825 0 810 0C795 0 780 0 765 0C750 0 735 0 720 0C705 0 690 0 675 0C660 0 645 0 630 0C615 0 600 0 585 0C570 0 555 0 540 0C525 0 510 0 495 0C480 0 465 0 450 0C435 0 420 0 405 0C390 0 375 0 360 0C345 0 330 0 315 0C300 0 285 0 270 0C255 0 240 0 225 0C210 0 195 0 180 0C165 0 150 0 135 0C120 0 105 0 90 0C75 0 60 0 45 0C30 0 15 0 7.5 0L0 0Z" fill="#0e0031" stroke-linecap="round" stroke-linejoin="miter"></path></svg>